<?xml version="1.0"?>
<svg xmlns:rdf="http://www.w3.org/1999/02/22-rdf-syntax-ns#" xmlns="http://www.w3.org/2000/svg" xmlns:cc="http://web.resource.org/cc/" xmlns:dc="http://purl.org/dc/elements/1.1/" xmlns:svg="http://www.w3.org/2000/svg" id="Layer_1" style="enable-background:new 0 0 275.38 272.106" space="preserve" viewBox="0 0 275.38 272.106" version="1.1">
  <path id="path1431" fill-rule="evenodd" clip-rule="evenodd" d="m101.98 272.1c8.342-2.979 16.663-5.969 25.385-7.604 5.333-0.999 19.021 1.864 18.682 1.512 5.061-3.168 8.38-8.595 12.181-13.254 2.65-3.249 5.666-6.193 8.398-9.382 1.779-2.076 3.389-6.303 5.575-7.457 1.562-0.824 6.501 0 9.313 0 4.404 0 8.741-0.341 13.131-0.679 7.809-0.601 15.314 1.975 22.988-0.224 16.362-4.687 25.64-20.33 35.176-33.49 9.08-12.53 22.57-29.699 22.57-45.758 0-3.033-3.351-6.732-5.015-9.414-2.31-3.721-4.839-7.193-6.941-11.054-3.777-6.934-6.707-14.318-10.48-21.241-9.157-16.804-3.035-31.792 8.53-45.46 3.706-4.38 13.548-13.565 13.548-19.691 0-8.637-12.765-0.604-15.271 0.65-5.727 2.863-11.39 9.533-16.253 14.395-1.589 1.589-5.123-3-6.173-1.301-2.98 4.822-5.961 9.644-8.942 14.466-1.136 1.838-2.1 4.311-3.876 5.108-0.117 0.053-4.364-1.775-4.293 0.176 0.218 5.99 2.086 14.08 0.712 19.887-0.436 1.841-2.074 0.74-2.414 3.822-0.298 2.693 0.574 5.372 1.563 7.844 2.12 5.304 4.993 10.427 6.583 15.92-4.348-0.544-7.242-1.515-5.731 3.941 0.804 2.902 3.362 6.113 5.268 8.398 3.072 3.688 10.533 12.01 9.063 16.679-1.757-0.967-4.763-4.692-7.165-3.581-3.296 1.525-2.008 10.825-3.662 14.13-2.33 4.659-6.351-2.3-9.594-2.667-5.077-0.575-9.021 6.631-12.18 10.032-1.443-1.512-6.5-8.491-8.259-7.445-4.174 2.481-8.348 4.964-12.521 7.445-1.348-2.738 0.469-5.779-1.075-8.24-1.959-3.122-11.533-1.752-11.821-3.225-0.567-2.904 8.796-3.048 10.388-4.657 2.849-2.88 0.005-13.308-0.356-17.554 3.477 0.579 5.852 1.271 9.167 0.168 1.208-0.402 0.317-5.332 0.277-6.453-0.283-7.817-0.565-15.634-0.848-23.451 3.947-0.106 16.955 5.792 15.643-1.084-1.87-9.79-3.739-19.579-5.609-29.369h8.956c-2.671-11.567-8.208-20.916-14.755-30.73-1.023-1.534-5.937-7.251-5.31-9.036 0.834-2.374 12.435-3.305 15.405-3.941-0.92-3.216-5.742-6.189-8.557-7.733l-21.177-11.613c3.046-3.046 13.1-9.191 5.731-12.897-3.817-1.92-12.108-0.377-16.696-0.268-14.19 0.338-27.09 0.781-40.983 3.493-0.042-2.537 2.866-4.008 2.866-5.912 0-5.806-5.393-4.312-9.775-3.515-8.062 1.465-16.067 6.269-22.469 11.218-2.342 1.811-4.799 3.795-6.448 6.27-1.051 1.578-9.829 0.786-12.115 1.44-8.723 2.495-12.095 10.003-7.23 18.085-2.909 0.415-8.922 0.92-8.6 1.074-6.988 1.858-13.977 3.715-20.965 5.573-3.472 0.923-7.985 1.176-7.697 1.951-3.596 1.199-7.038 1.861-10.389 2.507-2.853 0.55-2.202 1.922-4.299 2.508-7.438 2.078-10.066 8.515-10.389 8.599-0.594 1.753-1.91 15.207-2.434 19.145-0.844 6.347 0.209 13.586 0.999 19.905 1.629 13.029 9.325 22.392 21.138 28.302 5.538 2.771 9.774 4.408 10.389-3.224 0.415-5.147-0.835-11.059 4.658-7.166 2.808 1.99 5.11 6.449 8.957 6.449 5.473 0 5.912-4.784 7.882-9.314 10.412 9.546 19.193 18.453 33.94 19.319 5.663 0.333 10.669-3.556 16.215-3.556 7.138 0 14.62-3.2 21.495-5.016 4.856 15.243-25.761 24.116-34.034 31.169-4.214 3.592-2.853 5.349-8.472 4.052-3.393-0.782-7.531-3.424-10.469-5.293-5.795-3.688-18.408-9.767-24.767-4.49 1.98 0.374 16.271 2.132 15.764 4.298-0.565 2.407-18.42 3.988-21.495 5.911-2.137 1.337-5.813 5.487-3.226 7.702 1.269 1.086 3.584 0.172 3.584-2.148 0-4.951 16.488-5.403 20.063-6.091-2.805 4.553-7.503 7.413-10.39 11.822-3.643 5.564-0.459 11.657 3.304 4.141 2.229-4.451 7.087-8.082 10.827-11.2 3.914-3.263 8.482 2.313 12.379 4.911-7.709 11.009-13.447 26.145-6.986 39.049 1.899 3.793-10.068 5.256-12.917 7.63-6.933 5.777-6.825 13.277-5.532 21.748-3.875-2.873-7.927-5.194-11.717-8.227-4.874-3.898-4.286-9.905-4.932-15.581-0.807-7.082 0.144-19.348-6.28-23.124-0.119 4.061-0.238 8.12-0.357 12.181-2.581-3.872-4.346-8-8.957-9.674-0.832-0.302-1.783 1.083-2.541 0.325-1.374-1.374-1.949-2.35-3.907-2.116 1.829 9.749 5.581 16.247 11.106 24.361 3.807 5.59 6.248 15.221 12.697 17.369 6.883 2.293 9.571 9.265 14.53 13.441 4.065 3.425 9.674 5.631 9.674 2.867 0-3.373-1.704-4.288 2.15-7.166 7.039-5.256 21.246-10.982 31.067-11.879 3.311-0.302 2.946-1.089 4.399-1.734 1.702-0.757 1.942-1.896 4.353-0.69 3.889 1.943 4.361 2.464 5.68 6.422 0.957 2.873 1.523 5.662 3.582 7.882 8.337 8.99 27.279 3.199 37.617 2.508-1.167 1.909-6.656 13.16-8.402 12.786-4.809-1.03-9.774-2.085-14.688-2.435-4.979-0.354-10.059-1.036-15.048-1.036-2.318 0-10.718-1.668-10.227 1.433 0.5 3.15 11.528 2.241 11.465 5.374-0.031 1.539-12.372 4.672-14.331 5.372-1.002 0.358-6.211 1.194-5.194 3.227 1.059 2.1 4.595 2.2 6.624 2.14"/>
  <path id="path1433" d="m123.84 242.36c9.951-1.327 19.902-2.653 29.854-3.98 4.22-0.563 8.197-0.459 11.703-3.184-4.984-4.271-14.504-7.702-15.941-14.868-1.051-5.238 1.854-12.771 6.986-14.868 4.402-1.799 2.74 1.803 1.79 4.656-1.788 5.367-2.813 10.008 2.614 14.346 2.787 2.228 5.831 3.851 9.009 5.44 3.776 1.889 7.506 0.954 11.663 0.635 7.735-0.595 15.887-1.529 23.602-0.244 18.57 3.091 32.392-14.966 41.111-28.667 7.228-11.356 15.429-22.721 20.912-35.037 3.575-8.033 3.294-11.797-1.434-19.167-4.155-6.478-8.429-12.78-12.252-19.473-6.604-11.561-13.902-27.32-9.959-40.714 4.14-14.06 14.395-22.718 22.57-34.393-8.65 5.079-15.131 13.122-22.995 19.863-5.826 4.994-6.728-0.339-9.707 8.003-1.934 5.414-1.832 10.307-7.782 10.825 0.827 4.585 7.066 22.662 1.434 23.645 2.438 6.5 4.875 13.001 7.312 19.501 0.975 2.599-4.556 1.994-5.877 1.994 4.081 5.449 10.46 11.844 11.821 18.63 1.568 7.818-1.549 8.512-8.956 7.523 0.313 5.493-2.469 13.256-9.137 13.256-2.595 0-3.031-1.468-4.834-2.148-0.747-0.282-1.416-1.504-2.15-1.435-1.188 0.111-4.23 4.683-5.017 5.553-1.93 2.136-4.972 7.157-8.598 6.628-2.822-0.412-4.122-4.987-5.549-7.603-2.082-3.819-11.455 3.006-14.486 4.597-2.796 1.469-4.773 3.571-6.476 1.215-1.965-2.721 2.801-9.571 0-12.18-3.03-2.823-19.092 1.081-13.615-7.524 1.593-2.503 6.58-4.093 9.315-5.016 0.552-0.187 4.011-0.604 3.912-1.265-0.408-2.743-0.816-5.486-1.225-8.229-0.445-2.985-2.364-7.508-0.179-9.852 2.153-2.31 7.544-0.835 10.388-0.717-0.821-9.393-1.644-18.785-2.465-28.178-0.611-6.998 14.214-0.136 16.795 0.592 0-7.991-2.283-15.82-4.802-23.367-0.677-2.027-3.796-9.136-2.363-11.026 1.392-1.836 7.212 1.123 9.314 1.792-5.313-10.155-10.626-20.31-15.939-30.464-1.71-3.27-6.995-5.848-4.48-8.587 1.899-2.068 10.412-1.99 13.255-2.507-2.764-4.207-8.113-5.578-12.472-7.445-3.951-1.692-7.279-4.164-11.53-4.736-2.136-0.288-6.708 0.501-7.165-2.866-0.522-3.849 9.349-7.302 11.465-9.673-2.365-1.692-10.251-0.534-13.168-0.611-8.521-0.224-16.11-0.836-24.359 1.164-5.763 1.397-15.306 5.51-20.871 4.462-5.718-1.077-1.02-7.475 0.717-11.105-9.736 3.33-17.704 5.881-25.078 13.255 4.866 0.859 46.609 9.158 41.199 16.48-1.598 2.162-18.7-5.453-22.172-6.668-8.344-2.92-17.105-4.358-25.929-3.938-3.42 0.163-9.317-0.038-12.086 2.008-2.859 2.112-1.636 3.312-0.128 6.731 0.498 1.128 5.674 10.29 1.923 10.506-5.734 0.331-11.469 0.662-17.203 0.993-7.724 0.445-16.657 4.236-24.266 6.025-6.105 1.436-17.295 5.256-21.23 10.495-0.503 0.67 0.948 1.023 0.718 1.434-1.155 2.058-2.091 1.794-2.508 4.299-0.574 3.448-0.729 6.951-1.019 10.434-0.576 6.935-0.29 14.382 0.766 21.245 1.825 11.858 9.616 18.151 18.524 25.285 0.498-3.887-0.468-15.47 4.658-16.48 4.439-0.875 12.33 6.7 15.046 9.673 1.978-3.089 0.802-7.064 2.866-10.031 3.023-4.345 7.161-0.576 11.252 1.123 1.58 0.656 10.103 5.388 10.78 3.356 0.651-1.952 0.034-5.379 0.896-6.986 2.461-4.591 10.238-0.889 13.972 0 5.022 1.196 6.865 2.062 8.062-3.317 1.147-5.154 2.154-8.298 8.352-6.528 8.092 2.311 14.192 4.288 17.091-5.852 0.486-1.7 3.638-8.843 3.039-10.097-0.702-1.469-6.912-1.895-8.957-2.149-3.978-0.496-23.287-1.285-23.287-7.649 0-9.387 4.762-16.476 10.837-23.307 2.831-3.184 4.052-6.303 8.444-6.303 3.921 0 6.808 1.22 10.256 2.945 2.326 1.164 14.784 8.437 14.53 11.026-0.669 6.823-16.22-5.685-18.205-6.82-5.267-3.012-6.507-0.115-9.938 3.888-2.693 3.141-4.858 6.506-7.044 10.008-0.958 1.536-1.013 3.859-1.176 5.643-0.254 2.792 0.862 2.212 3.402 3.045 3.896 1.277 8.373 1.835 12.439 2.205 5.537 0.504 16.427-0.989 16.581 4.244 0.183 6.229-3.742 15.405-6.807 20.779-2.048 3.592-4.569 6.449-8.956 6.449-2.021 0-4.096 0.153-6.09-0.179-1.254-0.209-5.538-2.275-6.45-1.971-3.816 1.271-1.097 9.679-5.015 11.823-2.613 1.43-9.44-1.301-11.696-1.773-0.777-0.163-6.845-1.818-7.004-1.16-0.536 2.22-0.84 8.583-2.438 10.099-2.832 2.688-6.932-0.326-9.314-1.792 5.439 7.011 13.253 12.445 22.383 10.042 9.093-2.393 18.382-4.728 27.586-6.666 4.899-1.031 21.151-5.638 24.907-2.66 4.029 3.195-7.774 4.881-10.03 5.374 2.759 9.675-5.355 18.257-12.898 23.107-5.189 3.336-10.943 5.628-16.122 8.957-2.549 1.639-4.631 3.97-7.164 5.554-0.651 0.407-1.525-0.573-2.51 0 10.689 7.169 22.773-11.106 29.736-16.123 5.019-3.615 11.149-5.611 16.479-1.79 2.086 1.496 6.245 6.813 0.717 6.09-2.67-0.35-3.105-4.574-6.627-3.403-2.052 0.683-3.475 1.145-5.195 2.688-4.629 4.151-8.641 9.047-13.614 12.896-5.554 4.299-13.024 6.584-20.063 5.732-4.922-0.596-13.131-1.727-16.839-5.373 8.615 6.663 18.635 11.462 28.939 14.9 6.305 2.104 11.077 2.434 17.679 1.333 1.813-0.303 17.937-3.965 16.967-0.085-1.144 4.569-12.115 5.442-16.453 6.31-5.386 1.078-11.678-0.607-16.972-1.6-7.399-1.388-16.76-5.409-22.636-10.112-9.448 8.835-11.665 22.41-7.524 34.395 4.463 12.919 17.917 12.236 29.021 15.405-1.996-2.661-11.169-10.834-7.166-13.614 3.734-2.593 8.031 6.116 10.391 8.239 1.617 1.454 3.751 1.742 4.275 3.874 1.166 4.744 2.331 9.488 3.496 14.231 1.01 3.95 1.59 6.01 5.88 6.61" fill-rule="evenodd" clip-rule="evenodd" fill="#003CFF"/>
  <path id="path1435" d="m60.782 238.78c10.462-6.276 21.222-11.821 33.677-11.821-4.702-2.361-10.018-3.096-14.49-6.077-1.65-1.101-3.354-4.868-5.138-4.422-3.14 0.785-7.647 1.044-10.466 2.617-4.646 2.58-8.556 20.62-3.583 19.7" fill-rule="evenodd" clip-rule="evenodd" fill="#2210D2"/>
  <path id="path1437" fill-rule="evenodd" clip-rule="evenodd" d="m220.92 201.16c4.443-2.073 8.868-5.974 10.39-11.105 0.948-3.199 0.472-2.394-1.075-3.94 0.279 0.279-3.591-1.451-2.865-1.435-3.931-0.087-7.182 5.598-8.956 9.673-1.16 2.67-2.52 9.29 2.5 6.81"/>
  <path id="path1439" fill-rule="evenodd" clip-rule="evenodd" d="m238.84 185.04c2.452-0.134 6.779-4.736 3.222-6.809-3.34-1.95-7.97 6.58-3.22 6.81"/>
  <path id="path1441" fill-rule="evenodd" clip-rule="evenodd" d="m249.58 174.29c1.713 0.175 3.575-1.8 1.791-2.865-2.22-1.33-4.28 1.32-1.79 2.87"/>
  <path id="path1443" fill-rule="evenodd" clip-rule="evenodd" d="m167.54 96.189c3.886-2.351 7.338-15.562 0.743-16.387-6.209-0.776-6.246 14.649-1.818 16.746 0.14-0.696 0.48-0.193 1.08-0.359"/>
  <path id="path1445" fill-rule="evenodd" clip-rule="evenodd" d="m31.405 89.024c2.363-1.27 2.196-9.887 1.247-12.738-1.426-4.282-3.663-6.003-8.054-5.175-2.428 0.458-4.551 1.271-4.299 4.299 0.224 2.679 8.772 12.789 11.106 13.614"/>
  <path id="path1447" fill-rule="evenodd" clip-rule="evenodd" d="m167.54 69.32c2.971-0.484 2.758-6.105-0.716-5.732-3.48 0.373-2.03 6.303 0.72 5.732"/>
  <path id="path1449" fill-rule="evenodd" clip-rule="evenodd" d="m174.35 66.454c5.26-1.277 0.19-5.711-1.793-2.149 0.22 0.83 0.89 1.725 1.79 2.149"/>
  <path id="path1451" fill-rule="evenodd" clip-rule="evenodd" d="m90.876 52.124c2.853-0.104 2.15-4.604 2.15-6.987 0-5.908-3.708-7.344-8.598-7.344 0.64 6.398-0.906 13.096 6.448 14.331"/>
  <path id="path1453" fill-rule="evenodd" clip-rule="evenodd" d="m162.89 38.867c3.121-0.68 3.065-6.116-0.719-6.089-5.03 0.035-1.87 5.126 0.72 6.089"/>
  <metadata>
    <rdf:RDF>
      <cc:Work>
        <dc:format>image/svg+xml</dc:format>
        <dc:type rdf:resource="http://purl.org/dc/dcmitype/StillImage"/>
        <cc:license rdf:resource="http://creativecommons.org/licenses/publicdomain/"/>
        <dc:publisher>
          <cc:Agent rdf:about="http://openclipart.org/">
            <dc:title>Openclipart</dc:title>
          </cc:Agent>
        </dc:publisher>
        <dc:title>Architetto -- Dino 01</dc:title>
        <dc:date>2009-05-01T22:04:15</dc:date>
        <dc:description>Blue dinosaur by Francesco 'Architetto' Rollandin.</dc:description>
        <dc:source>http://openclipart.org/detail/25707/architetto----dino-01-by-anonymous-25707</dc:source>
        <dc:creator>
          <cc:Agent>
            <dc:title>Anonymous</dc:title>
          </cc:Agent>
        </dc:creator>
        <dc:subject>
          <rdf:Bag>
            <rdf:li>animal</rdf:li>
            <rdf:li>blue</rdf:li>
            <rdf:li>cartoon</rdf:li>
            <rdf:li>clip art</rdf:li>
            <rdf:li>clipart</rdf:li>
            <rdf:li>dinosaur</rdf:li>
            <rdf:li>extinct</rdf:li>
            <rdf:li>image</rdf:li>
            <rdf:li>media</rdf:li>
            <rdf:li>png</rdf:li>
            <rdf:li>public domain</rdf:li>
            <rdf:li>reptile</rdf:li>
            <rdf:li>svg</rdf:li>
            <rdf:li>tyrannosaurus</rdf:li>
          </rdf:Bag>
        </dc:subject>
      </cc:Work>
      <cc:License rdf:about="http://creativecommons.org/licenses/publicdomain/">
        <cc:permits rdf:resource="http://creativecommons.org/ns#Reproduction"/>
        <cc:permits rdf:resource="http://creativecommons.org/ns#Distribution"/>
        <cc:permits rdf:resource="http://creativecommons.org/ns#DerivativeWorks"/>
      </cc:License>
    </rdf:RDF>
  </metadata>
</svg>
