<?xml version="1.0" encoding="UTF-8"?>
<?xml-stylesheet href="world.css" type="text/css"?>

<svg version="1.1"
     xmlns="http://www.w3.org/2000/svg"
     xmlns:xlink="http://www.w3.org/1999/xlink"
     width="1024" height="768"
     onload="startWorld()"
     onkeypress="commandAdd()">
     
<script type="text/javascript" xlink:href="command.js"/>
<script type="text/javascript" xlink:href="lindaura.js"/>
<script type="text/javascript" xlink:href="robesberto.js"/>
<script type="text/javascript" xlink:href="world.js"/>

<script type="text/javascript">
  <![CDATA[
  (function(i,s,o,g,r,a,m){i['GoogleAnalyticsObject']=r;i[r]=i[r]||function(){
  (i[r].q=i[r].q||[]).push(arguments)},i[r].l=1*new Date();a=s.createElement(o),
  m=s.getElementsByTagName(o)[0];a.async=1;a.src=g;m.parentNode.insertBefore(a,m)
  })(window,document,'script','//www.google-analytics.com/analytics.js','ga');

  ga('create', 'UA-8348928-9', 'santanche.github.io');
  ga('send', 'pageview');
  ]]>
</script>

<def>
  <pattern id="Grid" width="0.1" height="0.1">
    <rect width="50" height="50" style="fill:rgb(255,255,200);stroke-width:2;stroke:rgb(100,100,100)" />
  </pattern> 
</def>

<rect fill="url(#Grid)" x="0" y="0" width="500" height="500" />

<image id="lindaura" xlink:href="lindaura.svg" x="0" y="0" width="50" height="50" />
<image id="robesberto" xlink:href="robesberto.svg" x="50" y="0" width="50" height="50" />

<g transform="translate(520, 20)">
  <g class="clickable" onclick="addInstr('&lt;')">
     <rect x="0" y="0" width="40" height="40" fill="#000080" />
     <text x="0" y="45" font-size="64" font-family="Arial" fill="#FFFFFF"> &lt; </text>
  </g>
  <g class="clickable" onclick="addInstr('^')" transform="translate(60, 0)">
     <rect x="0" y="0" width="40" height="40" fill="#000080" />
     <text x="5" y="50" font-size="64" font-family="Arial" fill="#FFFFFF"> ^ </text>
  </g>
  <g class="clickable" onclick="addInstr('v')" transform="translate(120, 0)">
     <rect x="0" y="0" width="40" height="40" fill="#000080" />
     <text x="5" y="35" font-size="64" font-family="Arial" fill="#FFFFFF"> v </text>
  </g>
  <g class="clickable" onclick="addInstr('&gt;')" transform="translate(180, 0)">
     <rect x="0" y="0" width="40" height="40" fill="#000080" />
     <text x="0" y="45" font-size="64" font-family="Arial" fill="#FFFFFF"> &gt; </text>
  </g>
  <g class="clickable" onclick="addInstr('*')" transform="translate(240, 0)">
     <rect x="0" y="0" width="40" height="40" fill="#800000" />
     <text x="7" y="52" font-size="64" font-family="Arial" fill="#FFFFFF"> * </text>
  </g>
  <rect x="0" y="45" width="300" height="50" rx="10" ry="10"
        fill="white" stroke-width="2" stroke="#000080"/>
  <text id="command" x="10" y="80" width="300" height="50" font-size="32" font-family="Arial"></text>
</g>

<g transform="translate(520, 100)">
  <text x="0" y="50" font-size="32" font-family="Arial" fill="#000080">LOG</text>
  <rect x="0" y="55" width="300" height="300" rx="10" ry="10"
        fill="white" stroke-width="2" stroke="#000080"/>
  <text x="10" y="90" width="300" height="200" font-size="16" font-family="Arial">
     <tspan x="5" y="80"  id="l1"></tspan>
     <tspan x="5" y="100" id="l2"></tspan>
     <tspan x="5" y="120" id="l3"></tspan>
     <tspan x="5" y="140" id="l4"></tspan>
     <tspan x="5" y="160" id="l5"></tspan>
     <tspan x="5" y="180" id="l6"></tspan>
     <tspan x="5" y="200" id="l7"></tspan>
     <tspan x="5" y="220" id="l8"></tspan>
     <tspan x="5" y="240" id="l9"></tspan>
     <tspan x="5" y="260" id="l10"></tspan>
     <tspan x="5" y="280" id="l11"></tspan>
     <tspan x="5" y="300" id="l12"></tspan>
     <tspan x="5" y="320" id="l13"></tspan>
     <tspan x="5" y="340" id="l14"></tspan>
  </text>
</g>

<g transform="translate(520, 100)">
  <g class="clickable" onclick="restart('t')" transform="translate(100, 0)">
     <rect id="bTest" x="0" y="20" width="80" height="30" fill="#800000" />
     <text x="5" y="45" font-size="32" font-family="Arial" fill="#FFFFFF"> Train </text>
  </g>
  <g  class="clickable" onclick="restart('p')" transform="translate(200, 0)">
     <rect id="bPlay" x="0" y="20" width="80" height="30" fill="#AAAAAA" />
     <text x="5" y="45" font-size="32" font-family="Arial" fill="#FFFFFF"> Play </text>
  </g>
</g>

<a xlink:href="story/lindaura-story.html" target="_blank">
   <g transform="translate(520, 450)">
     <rect id="bTest" x="0" y="20" width="80" height="30" fill="#000080" />
     <text x="5" y="45" font-size="32" font-family="Arial" fill="#FFFFFF"> Story </text>
   </g>
</a>   

</svg>
